<?xml version="1.0" ?><svg data-name="Layer 1" id="Layer_1" viewBox="0 0 64 64" xmlns="http://www.w3.org/2000/svg"><defs><style>.cls-1{fill:#d7e6f9;}.cls-2{fill:#ccd3dd;}.cls-3{fill:#ffce62;}.cls-4{fill:#f95555;}</style></defs><title/><polygon class="cls-1" points="4 48 18 48 18 16 12 14 4 18 4 48"/><path class="cls-2" d="M18,48V16l-6-2L9.7,15.152c.6.2-.214,1.4.385,1.6s.994-.332,1.593-.132.024,1.454.625,1.654,2.609-.14,2.7.487c.565,3.833-2,2.118-2,5.992s2,3.874,2,7.747-2,3.876-2,7.752S15,44.124,15,48Z"/><polygon class="cls-1" points="60 48 46 48 46 16 52 14 60 18 60 48"/><path class="cls-2" d="M60,48V18l-8-4-2.842.947c.948.474-.258,1.621.69,2.1s1.844-1.314,2.794-.839.057,2.264,1.008,2.74,3.084-1.205,3.324-.169C57.793,22.305,55,22.625,55,26.249s2,3.624,2,7.247-2,3.626-2,7.252S57,44.374,57,48Z"/><polygon class="cls-1" points="46 52 18 52 18 12 32 4 46 12 46 52"/><path class="cls-2" d="M46,52V12L32,4,29.621,5.359c1.286.735.294,1.887,1.581,2.622s2.278-1,3.565-.266.294,2.472,1.581,3.207,2.281-1,3.57-.263.721,1.179,1.119,2.609C42.081,17.024,43,16.9,43,20.8s-2,3.9-2,7.8,2,3.9,2,7.8-2,3.9-2,7.8,2,3.9,2,7.8Z"/><rect class="cls-3" height="12" width="12" x="26" y="40"/><polygon class="cls-3" points="36 12 34 12 34 10 30 10 30 12 28 12 28 16 30 16 30 18 34 18 34 16 36 16 36 12"/><rect class="cls-4" height="4" width="4" x="38" y="32"/><rect class="cls-4" height="4" width="4" x="38" y="40"/><rect class="cls-4" height="4" width="4" x="30" y="32"/><rect class="cls-4" height="4" width="4" x="22" y="32"/><rect class="cls-4" height="4" width="4" x="22" y="40"/><rect class="cls-4" height="4" width="4" x="38" y="24"/><rect class="cls-4" height="4" width="4" x="30" y="24"/><rect class="cls-4" height="4" width="4" x="22" y="24"/><rect class="cls-4" height="4" width="4" x="10" y="30"/><rect class="cls-4" height="4" width="4" x="10" y="38"/><rect class="cls-4" height="4" width="4" x="10" y="22"/><rect class="cls-4" height="4" width="36" x="14" y="52"/><rect class="cls-4" height="4" width="14" x="4" y="48"/><rect class="cls-4" height="4" transform="translate(104 64) rotate(-180)" width="4" x="50" y="30"/><rect class="cls-4" height="4" transform="translate(104 48) rotate(-180)" width="4" x="50" y="22"/><rect class="cls-4" height="4" transform="translate(104 80) rotate(-180)" width="4" x="50" y="38"/><rect class="cls-4" height="4" transform="translate(106 100) rotate(-180)" width="14" x="46" y="48"/><rect class="cls-4" height="4" width="44" x="10" y="56"/><path d="M34,19H30a1,1,0,0,1-1-1V17H28a1,1,0,0,1-1-1V12a1,1,0,0,1,1-1h1V10a1,1,0,0,1,1-1h4a1,1,0,0,1,1,1v1h1a1,1,0,0,1,1,1v4a1,1,0,0,1-1,1H35v1A1,1,0,0,1,34,19Zm-3-2h2V16a1,1,0,0,1,1-1h1V13H34a1,1,0,0,1-1-1V11H31v1a1,1,0,0,1-1,1H29v2h1a1,1,0,0,1,1,1Z"/><path d="M42,37H38a1,1,0,0,1-1-1V32a1,1,0,0,1,1-1h4a1,1,0,0,1,1,1v4A1,1,0,0,1,42,37Zm-3-2h2V33H39Z"/><path d="M34,37H30a1,1,0,0,1-1-1V32a1,1,0,0,1,1-1h4a1,1,0,0,1,1,1v4A1,1,0,0,1,34,37Zm-3-2h2V33H31Z"/><path d="M26,37H22a1,1,0,0,1-1-1V32a1,1,0,0,1,1-1h4a1,1,0,0,1,1,1v4A1,1,0,0,1,26,37Zm-3-2h2V33H23Z"/><path d="M42,29H38a1,1,0,0,1-1-1V24a1,1,0,0,1,1-1h4a1,1,0,0,1,1,1v4A1,1,0,0,1,42,29Zm-3-2h2V25H39Z"/><path d="M34,29H30a1,1,0,0,1-1-1V24a1,1,0,0,1,1-1h4a1,1,0,0,1,1,1v4A1,1,0,0,1,34,29Zm-3-2h2V25H31Z"/><path d="M26,29H22a1,1,0,0,1-1-1V24a1,1,0,0,1,1-1h4a1,1,0,0,1,1,1v4A1,1,0,0,1,26,29Zm-3-2h2V25H23Z"/><path d="M14,35H10a1,1,0,0,1-1-1V30a1,1,0,0,1,1-1h4a1,1,0,0,1,1,1v4A1,1,0,0,1,14,35Zm-3-2h2V31H11Z"/><path d="M14,43H10a1,1,0,0,1-1-1V38a1,1,0,0,1,1-1h4a1,1,0,0,1,1,1v4A1,1,0,0,1,14,43Zm-3-2h2V39H11Z"/><path d="M14,27H10a1,1,0,0,1-1-1V22a1,1,0,0,1,1-1h4a1,1,0,0,1,1,1v4A1,1,0,0,1,14,27Zm-3-2h2V23H11Z"/><path d="M54,35H50a1,1,0,0,1-1-1V30a1,1,0,0,1,1-1h4a1,1,0,0,1,1,1v4A1,1,0,0,1,54,35Zm-3-2h2V31H51Z"/><path d="M54,27H50a1,1,0,0,1-1-1V22a1,1,0,0,1,1-1h4a1,1,0,0,1,1,1v4A1,1,0,0,1,54,27Zm-3-2h2V23H51Z"/><path d="M54,43H50a1,1,0,0,1-1-1V38a1,1,0,0,1,1-1h4a1,1,0,0,1,1,1v4A1,1,0,0,1,54,43Zm-3-2h2V39H51Z"/><path d="M60.447,17.105l-8-4a1.01,1.01,0,0,0-.763-.054L47,14.612V12a1,1,0,0,0-.5-.868l-14-8a1,1,0,0,0-.992,0l-14,8A1,1,0,0,0,17,12v2.612l-4.684-1.561a1.01,1.01,0,0,0-.763.054l-8,4A1,1,0,0,0,3,18V52a1,1,0,0,0,1,1h9v2H10a1,1,0,0,0-1,1v4a1,1,0,0,0,1,1H54a1,1,0,0,0,1-1V56a1,1,0,0,0-1-1H51V53h9a1,1,0,0,0,1-1V18A1,1,0,0,0,60.447,17.105ZM51.923,15.08,59,18.618V47H47V16.721ZM19,12.58,32,5.152,45,12.58V51H39V45h3a1,1,0,0,0,1-1V40a1,1,0,0,0-1-1H22a1,1,0,0,0-1,1v4a1,1,0,0,0,1,1h3v6H19ZM25,43H23V41h2Zm2-2h4V51H27Zm6,0h4V51H33Zm8,0v2H39V41ZM5,18.618l7.077-3.538L17,16.721V47H5ZM5,49H17v2H5ZM53,59H11V57H53Zm-4-4H15V53H49Zm10-4H47V49H59Z"/></svg>